<?xml version="1.0" encoding="UTF-8"?>
<svg id="Camada_2" data-name="Camada 2" xmlns="http://www.w3.org/2000/svg" xmlns:xlink="http://www.w3.org/1999/xlink" viewBox="0 0 2062.09 795.49">
  <defs>
    <style>
      .cls-1 {
        fill: #669bc7;
      }

      .cls-2 {
        letter-spacing: .25em;
      }

      .cls-3 {
        fill: #feffff;
      }

      .cls-4 {
        letter-spacing: .26em;
      }

      .cls-5 {
        letter-spacing: .26em;
      }

      .cls-6 {
        letter-spacing: .26em;
      }

      .cls-7, .cls-8 {
        fill: #214990;
      }

      .cls-8 {
        font-family: Roboto-Light, 'Roboto Light';
        font-size: 79.27px;
        font-weight: 300;
      }

      .cls-9, .cls-10, .cls-11 {
        fill: none;
      }

      .cls-10 {
        clip-path: url(#clippath);
      }

      .cls-11 {
        clip-path: url(#clippath-1);
      }
    </style>
    <clipPath id="clippath">
      <rect class="cls-9" width="2062.09" height="795.49"/>
    </clipPath>
    <clipPath id="clippath-1">
      <rect class="cls-9" width="2062.08" height="795.49"/>
    </clipPath>
  </defs>
  <g id="PRINCIPAIS">
    <g class="cls-10">
      <g class="cls-11">
        <path class="cls-1" d="m330.66,654.18c-142.94-.23-259.1-115.6-258.68-256.92.42-141.61,116.34-255.86,259.68-255.94,142.63-.08,259.12,115.65,258.64,256.95-.48,141.76-116.53,256.15-259.64,255.91m-.05-37.58c123.97.16,226.71-101.26,226.69-223.78-.02-120.95-102.99-222.82-225.97-222.17-117.11.62-224.22,88.73-224.64,222.67-.42,132.4,106.29,222.56,223.92,223.27"/>
        <path class="cls-7" d="m330.62,616.6c-117.63-.72-224.33-90.88-223.92-223.27.42-133.95,107.53-222.06,224.64-222.67,122.99-.65,225.95,101.22,225.97,222.17.02,122.52-102.72,223.94-226.69,223.78m81.44-227.78c-22.14,0-44.28.35-66.41-.15-10.85-.24-15.92,2.27-16.38,14.72-1.63,44.45-2.15,44.43,42.4,44.43,4.84,0,9.78-.59,14.51.12,10.25,1.55,26.25-5.97,29.47,4.55,3.1,10.11-10.81,19.22-19.34,27.16-2.48,2.31-5.62,3.98-8.59,5.73-35.36,20.8-87.11,16.28-122.89-10.69-33.13-24.97-48.38-70.26-37.25-110.63,19.7-71.45,102.08-99.76,169.44-58.81,11.02,6.7,19.38,23.6,31.2,20.41,11.8-3.18,20.19-17.78,30.86-26.42,11.2-9.07,11.22-15.88.32-25.98-33.49-31.06-73.46-44.72-118.28-48.09-95.96-7.22-180.67,68.18-181.89,162.47-1.42,110.47,97.27,190.66,207.96,168.98,72.67-14.23,125.94-77.57,126.94-150.07.18-13.17-3.91-18.57-17.76-17.99-21.41.9-42.88.24-64.33.24"/>
        <path class="cls-3" d="m412.06,388.81c21.45,0,42.92.66,64.33-.24,13.86-.59,17.94,4.82,17.76,17.99-1,72.5-54.27,135.83-126.94,150.07-110.69,21.68-209.38-58.51-207.96-168.98,1.21-94.3,85.93-169.69,181.89-162.48,44.82,3.37,84.78,17.03,118.28,48.09,10.9,10.1,10.88,16.91-.32,25.98-10.67,8.64-19.06,23.24-30.86,26.42-11.83,3.19-20.18-13.71-31.2-20.41-67.36-40.95-149.74-12.64-169.44,58.81-11.13,40.36,4.12,85.66,37.25,110.63,35.78,26.97,87.52,31.49,122.89,10.69,2.97-1.75,6.1-3.41,8.59-5.73,8.53-7.94,22.45-17.05,19.34-27.16-3.23-10.52-19.22-3-29.47-4.55-4.73-.72-9.67-.12-14.51-.12-44.55,0-44.03.02-42.4-44.43.46-12.46,5.53-14.97,16.38-14.72,22.13.49,44.27.15,66.41.15"/>
        <path class="cls-7" d="m810.74,437.72c-19.61,0-35.88-.67-52.07.21-13.26.72-13.28-7.91-11.46-15.85,2.19-9.53-9.47-26.46,10.17-27.42,31.39-1.53,62.91-.26,94.37-.5,10.86-.09,12.08,6.33,11.57,14.78-2.54,42.03-20.82,74.85-57.74,95.67-41.4,23.35-102.78,16.44-138.68-14.53-38.55-33.26-52.83-87.33-35.49-134.34,17.92-48.57,60.88-78.03,113.77-78.72,33.39-.44,63.1,8.57,89.14,30.16,11.21,9.29,15.25,16.92,1.06,26.55-3.91,2.66-7.63,6-10.48,9.75-6.71,8.85-11.6,6.57-19.48.23-35.87-28.84-78.23-30.3-108.74-3.54-23.71,20.79-31.2,47.51-22.84,78.11,8.17,29.92,35.43,52.23,69.51,55.19,27.63,2.4,51.1-5.98,67.38-35.74"/>
        <path class="cls-7" d="m892.74,513.32v-231.15c0-3.11,2.05-5.18,5.13-5.18h38.66c3.08,0,5.13,2.07,5.13,5.18v231.15c0,3.11-2.05,5.18-5.13,5.18h-38.66c-3.08,0-5.13-2.07-5.13-5.18"/>
        <path class="cls-7" d="m975.88,512.63l80.05-231.49c1.03-2.76,3.76-4.14,6.5-4.14h41.39c2.74,0,5.47,1.38,6.5,4.14l80.05,231.49c1.37,3.45-.68,5.86-4.45,5.86h-40.37c-2.74,0-4.79-1.04-5.82-4.14l-11.63-35.53h-90.31l-11.63,35.53c-1.02,3.1-3.08,4.14-5.81,4.14h-40.37c-3.76,0-5.47-2.42-4.11-5.86m138.21-77.63l-31.13-95.91-31.13,95.91h62.26Z"/>
        <path class="cls-7" d="m1358.69,515.05l-85.53-159.04v157.32c0,3.11-2.05,5.17-5.13,5.17h-38.66c-3.08,0-5.13-2.07-5.13-5.17v-231.15c0-3.11,2.05-5.18,5.13-5.18h45.5c2.74,0,4.79,1.04,6.16,3.45l85.53,159.04v-157.32c0-3.11,2.05-5.18,5.13-5.18h38.66c3.08,0,5.13,2.07,5.13,5.18v231.15c0,3.11-2.05,5.17-5.13,5.17h-45.5c-2.74,0-4.79-1.04-6.16-3.45"/>
        <path class="cls-7" d="m1462.69,513.32v-231.15c0-3.11,2.05-5.18,5.13-5.18h38.66c3.08,0,5.13,2.07,5.13,5.18v231.15c0,3.11-2.05,5.18-5.13,5.18h-38.66c-3.08,0-5.13-2.07-5.13-5.18"/>
        <path class="cls-7" d="m1693.61,515.05l-85.53-159.04v157.32c0,3.11-2.05,5.17-5.13,5.17h-38.66c-3.08,0-5.13-2.07-5.13-5.17v-231.15c0-3.11,2.05-5.18,5.13-5.18h45.5c2.74,0,4.79,1.04,6.16,3.45l85.52,159.04v-157.32c0-3.11,2.05-5.18,5.13-5.18h38.66c3.08,0,5.13,2.07,5.13,5.18v231.15c0,3.11-2.05,5.17-5.13,5.17h-45.5c-2.74,0-4.79-1.04-6.16-3.45"/>
        <path class="cls-7" d="m1784.27,512.63l80.05-231.49c1.02-2.76,3.76-4.14,6.5-4.14h41.39c2.74,0,5.47,1.38,6.5,4.14l80.05,231.49c1.37,3.45-.68,5.86-4.45,5.86h-40.37c-2.74,0-4.79-1.04-5.82-4.14l-11.63-35.53h-90.31l-11.63,35.53c-1.02,3.1-3.08,4.14-5.81,4.14h-40.37c-3.76,0-5.47-2.42-4.11-5.86m138.21-77.63l-31.13-95.91-31.13,95.91h62.26Z"/>
      </g>
      <text class="cls-8" transform="translate(1183.25 626.9)"><tspan class="cls-6" x="0" y="0">D</tspan><tspan class="cls-2" x="73.09" y="0">IST</tspan><tspan class="cls-4" x="231.15" y="0">R</tspan><tspan class="cls-2" x="294.1" y="0">I</tspan><tspan class="cls-6" x="333.26" y="0">B</tspan><tspan class="cls-5" x="396.51" y="0">UI</tspan><tspan class="cls-6" x="507.18" y="0">DOR</tspan><tspan x="718.12" y="0">A</tspan></text>
    </g>
  </g>
</svg>